<svg height="21.5rem" viewBox="0 0 512 512" width="21.5rem" xmlns="http://www.w3.org/2000/svg"><g id="Watering_Timer" data-name="Watering Timer"><g id="Flat"><path d="m96 144h-16a8 8 0 0 1 -8-8v-48h32v48a8 8 0 0 1 -8 8z" fill="#62818f"/><path d="m440 144h-16a8 8 0 0 1 -8-8v-48h32v48a8 8 0 0 1 -8 8z" fill="#62818f"/><rect fill="#90a4ae" height="48" rx="8" width="512" y="56"/><circle cx="264" cy="80" fill="#edb720" r="80"/><circle cx="264" cy="80" fill="#fcdb5a" r="64"/><path d="m80 472a8 8 0 0 1 -8-8v-48a8 8 0 0 1 16 0v48a8 8 0 0 1 -8 8z" fill="#71ad3d"/><path d="m80 456a48.055 48.055 0 0 0 -48 48h96a48.055 48.055 0 0 0 -48-48z" fill="#f7e0ba"/><path d="m255.5 472a8 8 0 0 1 -8-8v-48a8 8 0 0 1 16 0v48a8 8 0 0 1 -8 8z" fill="#71ad3d"/><path d="m255.259 456a48.055 48.055 0 0 0 -48 48h96a48.054 48.054 0 0 0 -48-48z" fill="#f7e0ba"/><path d="m432 472a8 8 0 0 1 -8-8v-48a8 8 0 0 1 16 0v48a8 8 0 0 1 -8 8z" fill="#71ad3d"/><path d="m431.259 456a48.055 48.055 0 0 0 -48 48h96a48.054 48.054 0 0 0 -48-48z" fill="#f7e0ba"/><circle cx="64" cy="472" fill="#fbf2e2" r="8"/><circle cx="240" cy="472" fill="#fbf2e2" r="8"/><circle cx="416" cy="472" fill="#fbf2e2" r="8"/><path d="m154.939 369.539c-1.484-.272-36.636-6.521-58.931 5.435a41.591 41.591 0 0 0 -15.256 13.838 41.6 41.6 0 0 0 -15.252-13.838c-22.3-11.956-57.45-5.708-58.936-5.435a8 8 0 0 0 -5.912 11.024c.6 1.388 14.843 34.124 37.137 46.078 13.825 7.413 29.254 6.312 42.962-.926 13.677 7.222 29.113 8.353 42.962.926 22.3-11.954 36.542-44.69 37.138-46.078a8 8 0 0 0 -5.912-11.024z" fill="#9ccc65"/><path d="m73.851 504h54.149a48.06 48.06 0 0 0 -27.214-43.262 55.98 55.98 0 0 1 -26.935 43.262z" fill="#f5d59f"/><path d="m249.111 504h54.148a48.06 48.06 0 0 0 -27.214-43.262 55.979 55.979 0 0 1 -26.934 43.262z" fill="#f5d59f"/><path d="m425.111 504h54.148a48.06 48.06 0 0 0 -27.214-43.262 55.979 55.979 0 0 1 -26.934 43.262z" fill="#f5d59f"/><path d="m504 512h-496a8 8 0 0 1 0-16h496a8 8 0 0 1 0 16z" fill="#e8c085"/><path d="m154.939 369.539a135.794 135.794 0 0 0 -35.985-1.14 88.029 88.029 0 0 1 -96.812 45.621c17.974 19.5 38.663 22.228 58.609 11.695 13.677 7.222 29.113 8.353 42.962.926 22.3-11.954 36.542-44.69 37.138-46.078a8 8 0 0 0 -5.912-11.024z" fill="#83bd46"/><path d="m329.436 369.539c-1.485-.272-36.636-6.521-58.931 5.435a41.591 41.591 0 0 0 -15.256 13.838 41.6 41.6 0 0 0 -15.257-13.838c-22.295-11.956-57.445-5.708-58.931-5.435a8 8 0 0 0 -5.912 11.024c.6 1.388 14.843 34.124 37.137 46.078 13.825 7.413 29.254 6.312 42.962-.926 13.677 7.222 29.113 8.353 42.962.926 22.3-11.954 36.542-44.69 37.138-46.078a8 8 0 0 0 -5.912-11.024z" fill="#9ccc65"/><path d="m329.436 369.539a135.8 135.8 0 0 0 -35.985-1.14 88.029 88.029 0 0 1 -96.812 45.621c17.974 19.5 38.662 22.228 58.609 11.695 13.677 7.222 29.113 8.353 42.962.926 22.3-11.954 36.542-44.69 37.138-46.078a8 8 0 0 0 -5.912-11.024z" fill="#83bd46"/><path d="m505.436 369.539c-1.485-.272-36.636-6.521-58.931 5.435a41.591 41.591 0 0 0 -15.256 13.838 41.6 41.6 0 0 0 -15.257-13.838c-22.3-11.956-57.445-5.708-58.931-5.435a8 8 0 0 0 -5.912 11.024c.6 1.388 14.843 34.124 37.137 46.078 13.825 7.413 29.254 6.312 42.962-.926 13.677 7.222 29.113 8.353 42.962.926 22.3-11.954 36.542-44.69 37.138-46.078a8 8 0 0 0 -5.912-11.024z" fill="#9ccc65"/><path d="m505.436 369.539a135.8 135.8 0 0 0 -35.985-1.14 88.029 88.029 0 0 1 -96.812 45.621c17.974 19.5 38.662 22.228 58.609 11.695 13.677 7.222 29.113 8.353 42.962.926 22.3-11.954 36.542-44.69 37.138-46.078a8 8 0 0 0 -5.912-11.024z" fill="#83bd46"/><circle cx="28" cy="388" fill="#c6ed93" r="12"/><circle cx="56" cy="400" fill="#c6ed93" r="8"/><circle cx="204" cy="388" fill="#c6ed93" r="12"/><circle cx="232" cy="400" fill="#c6ed93" r="8"/><circle cx="380" cy="388" fill="#c6ed93" r="12"/><circle cx="408" cy="400" fill="#c6ed93" r="8"/><g fill="#b2ebf2"><circle cx="264" cy="232" r="8"/><circle cx="280" cy="280" r="8"/><circle cx="264" cy="328" r="8"/><circle cx="248" cy="280" r="8"/><circle cx="232" cy="328" r="8"/><circle cx="296" cy="328" r="8"/><circle cx="432" cy="232" r="8"/><circle cx="448" cy="280" r="8"/><circle cx="432" cy="328" r="8"/><circle cx="416" cy="280" r="8"/><circle cx="400" cy="328" r="8"/><circle cx="464" cy="328" r="8"/><circle cx="88" cy="232" r="8"/><circle cx="264" cy="184" r="8"/><circle cx="432" cy="184" r="8"/><circle cx="88" cy="184" r="8"/><circle cx="104" cy="280" r="8"/><circle cx="88" cy="328" r="8"/><circle cx="72" cy="280" r="8"/><circle cx="56" cy="328" r="8"/><circle cx="120" cy="328" r="8"/></g><path d="m317.483 44.909a88.15 88.15 0 0 1 -85.483 67.091 87.726 87.726 0 0 1 -25.406-3.744 63.979 63.979 0 1 0 110.889-63.347z" fill="#f2c841"/><path d="m288 96h-24a8 8 0 0 1 -8-8v-40a8 8 0 0 1 16 0v32h16a8 8 0 0 1 0 16z" fill="#fff"/><path d="m504 56h-65.995a120.418 120.418 0 0 1 -38 48h103.995a8 8 0 0 0 8-8v-32a8 8 0 0 0 -8-8z" fill="#7e97a3"/><circle cx="28" cy="76" fill="#cfd8dc" r="12"/><circle cx="56" cy="88" fill="#cfd8dc" r="8"/></g></g></svg>